<?xml version="1.0" ?><!DOCTYPE svg  PUBLIC '-//W3C//DTD SVG 1.1//EN'  'http://www.w3.org/Graphics/SVG/1.1/DTD/svg11.dtd' [
	<!ENTITY stroke_color "#010101">
	<!ENTITY fill_color "#FFFFFF">
]>
<svg
   xmlns:dc="http://purl.org/dc/elements/1.1/"
   xmlns:cc="http://creativecommons.org/ns#"
   xmlns:rdf="http://www.w3.org/1999/02/22-rdf-syntax-ns#"
   xmlns:svg="http://www.w3.org/2000/svg"
   xmlns="http://www.w3.org/2000/svg"
   version="1.1"
   width="55"
   height="55"
   id="svg3061">
  <metadata
     id="metadata3072">
    <rdf:RDF>
      <cc:Work
         rdf:about="">
        <dc:format>image/svg+xml</dc:format>
        <dc:type
           rdf:resource="http://purl.org/dc/dcmitype/StillImage" />
        <dc:title></dc:title>
      </cc:Work>
    </rdf:RDF>
  </metadata>
  <defs
     id="defs3070" />
  <g 
     transform="translate(0,-6)"
     id="go-home">
    <path
       d="M 27.5,15.96256 8.48131,32.4005 8.55256,48.0374 17,48.0052 l 0,-17.0809 9,0 0,17.0809 21.59,0 -0.1679,-15.726 z m 4,14.96174 8,0 0,8 -8,0 z"
       id="path3064"
       style="fill:&fill_color;;stroke:none" />

  </g>
  <g 
     transform="translate(26.8227,25.815832)"
     id="g6510">
    <path
       d="m 1.75,9.216 c 0,4.125 3.342,7.47 7.468,7.47 4.121,0 7.466,-3.345 7.466,-7.47 C 16.684,5.093 13.339,1.75 9.218,1.75 5.092,1.75 1.75,5.093 1.75,9.216 z"
       id="path6512"
       style="fill:none;stroke:&stroke_color;;stroke-width:3.5" />
    <line
       style="fill:none;stroke:&stroke_color;;stroke-width:3.5"
       x1="14.498"
       y1="14.497"
       x2="20.917999"
       y2="20.919001"
       id="line6514" />
  </g>
</svg>
